<?xml version="1.0" encoding="UTF-8"?>
<svg xmlns="http://www.w3.org/2000/svg" id="Layer_1" data-name="Layer 1" viewBox="0 0 116.92 33.18">
  <defs>
    <style>
      .cls-1 {
        fill: #da1f26;
      }

      .cls-1, .cls-2 {
        stroke-width: 0px;
      }

      .cls-2 {
        fill: #fff;
      }
    </style>
  </defs>
  <path class="cls-2" d="M114.94,32.7c-1.1,0-1.99-.89-1.99-1.99s.89-1.99,1.99-1.99,1.99.89,1.99,1.99-.89,1.99-1.99,1.99ZM114.94,29.09c-.89,0-1.59.71-1.59,1.62s.7,1.62,1.59,1.62,1.58-.71,1.58-1.62-.7-1.62-1.58-1.62ZM115.35,31.78l-.44-.85h-.27v.85h-.39v-2.15h.81c.41,0,.69.3.69.66,0,.3-.19.5-.42.58l.48.9h-.44ZM115,29.97h-.36v.65h.36c.21,0,.35-.14.35-.32s-.14-.32-.35-.32Z"></path>
  <g>
    <path class="cls-2" d="M112.61,21.93l-.3-8.49-5.56.21v.65c-1.36-.24-2.8-.02-4,.61-1,.53-1.8,1.31-2.32,2.28-2.02-1.78-4.41-1.92-5.12-1.92-2.62,0-5.06,1.18-6.64,3.18-.32-1.05-.87-1.97-1.62-2.68-1.14-1.09-2.7-1.67-4.38-1.6-1.28.03-2.52.42-3.52,1.1-.9-.68-2.13-1.1-3.29-1.1-.79.02-1.48.12-2.11.32-.02-.37-.05-.91-.05-.91v-.25s-7.3.04-7.3.04h-.38s-.07-6.69-.07-6.69h-.57s.03-.02.04-.03c.72-.75,1.09-1.76,1.04-2.78-.05-2.53-2.11-3.86-4.11-3.86s-3.78,1.82-3.78,4.05c0,1.09.42,2.01,1.12,2.67l-14.81.13h-.26s.05,8.49.05,8.49l4.75.05h0s.72,0,.72,0h.48s0,0,0,0h1.43c0,1.93,0,4.58.01,6.88v4.38s-3.03,0-3.03,0l.19,6.12,12.22-.04.06-2.58h4.11l.03,2.31,7.74.04h0s.22,0,.22,0h.74s0,0,0,0h.34l-.02.58,9.35-.15v-.77l6.73-.07h0s.51,0,.51,0c1.22.65,2.6,1.03,4.08,1.07.07,0,.14,0,.21,0,2.37,0,4.23-.7,5.67-2.14,1.15,1.35,2.99,2.16,5.05,2.11,3.49-.04,5.58-2,5.73-5.39,0-.09,0-.19,0-.28,0-2.71-1.96-4.24-3.65-5.34,1.38-.07,4-.2,4-.2h.26Z"></path>
    <path class="cls-2" d="M.2,32.63l12.83.17.05-5.66h1.83c.82,3.45,3.98,5.3,6.78,5.3.78,0,1.45-.08,2.04-.23l-.04.96h7.51l.03-1.03,5.38-.04v-.02h2.16v.35s0,0,0,0v.29h8.24v-1.07h0v-5.39l-1.59.1.03-5.99c0-1.59-.76-3.3-1.98-4.46-1.23-1.17-2.82-1.74-4.58-1.65-.78.05-1.5.18-2.15.39v-1.19h-14.47s.02.62.02.62l.02.72h-2.23s0,0,0,0h-.76s-.09-8.07-.09-8.07L.1,6.92l.19,6.08,1.61.07.22,13.69-2.12.13.2,5.74Z"></path>
    <g>
      <path class="cls-1" d="M43.91,28.15v-.23c.03-4.72.03-7.55.03-7.55,0-1.2-.58-2.49-1.51-3.38-.64-.61-1.76-1.32-3.47-1.24-1.67.1-2.87.59-3.66,1.48l-.06.07v-2.28l-5.28.09-.07,2.35,1.82-.08-.07,10.88-1.87.04-.05,2.35,5.41-.03.2-9.84c.83-1.48,2.31-1.85,3.42-1.56,1.01.26,1.66,1.02,1.64,1.93,0,.02.03,2.86-.09,9.64v.23s5.21.03,5.21.03v-3.03s-1.6.13-1.6.13Z"></path>
      <polygon class="cls-1" points="65.15 14.36 60.53 14.33 58.94 14.38 58.97 17.44 61.83 17.57 61.73 25.91 59.44 26.01 59.48 28.39 57.17 28.39 57.31 11.69 61.73 11.65 61.76 13.03 64.52 12.96 64.45 8.17 46.11 8.33 46.14 13.85 49.13 13.88 49.16 11.79 53.52 11.75 53.55 28.15 50.56 28.15 50.66 31.28 59.97 31.24 60.03 28.94 67.08 28.94 67.08 25.85 65.19 25.78 65.15 14.36"></polygon>
      <path class="cls-1" d="M106.95,23.03l-.12.19h0s0,0,0,0l.12-.19c-1.24-.78-2.4-1.52-2.45-2.56-.01-.49.14-.91.45-1.22.38-.39.98-.61,1.64-.61,1.11.03,1.75.65,1.85,1.78l.02.22,2.58-.13-.2-5.52-2.62.1v1.44l-.06-.05c-1.16-.95-3.2-1.06-4.74-.25-.92.48-2.42,1.69-2.21,4.38.02.18.05.4.1.64-.01-.04-.03-.09-.04-.13l-.05-.16c-.07-.2-.15-.41-.24-.61-1.25-2.68-3.76-3.64-5.69-3.64-2.67,0-6.74,1.84-7.02,6.89-.09,1.51.14,2.87.67,4.06h-1.4s0-7.02,0-7.02c-.02-1.56-.55-2.93-1.5-3.83-.86-.82-2.01-1.23-3.33-1.2-.58.02-2.56.19-3.69,1.72-.45-1.08-1.96-1.72-3.17-1.72-1.59.04-2.64.46-3.41,1.38l-.13-2.21-5.74.03.03,2.45,2.13-.07.3,10.69-1.67.06v3.09l5.52.03v-.27c-.03-7.38-.06-9.21-.07-9.51-.01-1.35.59-1.91.95-2.12.52-.3,1.17-.29,1.69.02.51.3.8.82.79,1.44,0,.03.09,3.51-.09,10.72v.28s6.4-.1,6.4-.1v-2.28h-2.39c-.07-5.87-.03-7.85-.03-7.88-.01-.98.39-1.77,1.09-2.19.56-.33,1.23-.34,1.76-.04.37.21.98.76.98,2.11l.03,9.52,5.69-.03v-.27c0-.4,0-1.35,0-1.56.14.2.25.34.25.34h0c1.28,1.52,3.26,2.43,5.43,2.49.05,0,.1,0,.15,0,1.88,0,3.43-.38,5.25-2.17l.17-.17-1.9-2.44-.21.17c-1.21.97-2.37,1.42-3.5,1.36-1.6-.07-3.34-1.21-3.38-2.81l9.81-.3v-.25c.05-.73.04-1.4-.03-2.03-.02-.17-.09-.66-.25-1.28.05.13.09.25.15.38.69,1.33,2.06,2.21,3.27,2.98,1.22.78,2.28,1.46,2.27,2.39-.02.63-.31,1.09-.83,1.3-.51.21-1.12.1-1.5-.28-.36-.35-.47-.87-.31-1.47l.05-.2-2.71-1.03-.09.2c-.05.12-.13.31-.17.49-.31,1.32-.08,2.5.65,3.42.83,1.04,2.29,1.66,3.89,1.66h.07c2.67-.03,4.14-1.4,4.25-3.96.11-2.35-1.82-3.57-3.53-4.65ZM92.1,22.68c.24-1.69,1.78-2.74,3.15-2.77.05,0,.1,0,.15,0,1.24,0,2.63.94,2.83,2.55l-6.13.23Z"></path>
      <polygon class="cls-1" points="10.98 21.44 11.11 22.94 14.27 22.82 14.12 18.08 14.02 15.82 11.12 15.82 11.15 18.58 7.33 18.72 7.16 11.53 15.14 11.4 15.34 14.02 17.8 13.89 17.73 8.24 1.65 8.41 1.74 11.56 3.37 11.63 3.64 28.16 1.55 28.29 1.64 31.15 11.55 31.29 11.58 27.9 7.33 27.96 7.36 21.57 10.98 21.44"></polygon>
      <path class="cls-1" d="M28.73,15.37l-5.5-.15.06,2.66h1.76l-.18,8.47c-.49,1.19-1.32,1.78-2.61,1.85-.66.04-1.44-.29-1.97-.81-.5-.48-.76-1.09-.76-1.77,0-.01-.13-1.65.03-8.95v-.23s-5.11-.02-5.11-.02l.07,2.41,1.6.03c-.21,4.26.11,7.13.12,7.25.35,3.16,3.07,4.86,5.45,4.86,2.16,0,2.91-.67,3.6-1.48l.07-.08-.1,2.29h4.22v-2.47l-1.17-.03.42-13.82Z"></path>
      <path class="cls-1" d="M62.68,6.31c.64,0,1.23-.25,1.66-.7.44-.46.66-1.07.63-1.72-.03-1.65-1.39-2.4-2.63-2.4s-2.29,1.15-2.29,2.56c0,1.67,1.41,2.26,2.63,2.26Z"></path>
    </g>
  </g>
</svg>
