<svg class="h-[0.95rem] fill-current" xmlns="http://www.w3.org/2000/svg" viewBox="0 0 175.944 14.804"><defs><clipPath id="a"><path fill="none" d="M0 0h81.849v14.804H0z" data-name="Rectangle 1202"></path></clipPath><clipPath id="b"><path fill="none" d="M0 0h85.154v14.804H0z" data-name="Rectangle 1204"></path></clipPath></defs><g data-name="Group 22"><g data-name="Group 19"><g fill="" clip-path="url(#a)" data-name="Group 18"><path d="M7.55 11.063a2.578 2.578 0 0 0-.688-1.9 6.825 6.825 0 0 0-2.567-1.326 8.11 8.11 0 0 1-2.761-1.415A3.411 3.411 0 0 1 .376 3.731a3.478 3.478 0 0 1 1.138-2.692A4.189 4.189 0 0 1 4.453 0a4 4 0 0 1 3.008 1.207 4.285 4.285 0 0 1 1.168 3.108H7.491a3.353 3.353 0 0 0-.816-2.35 2.857 2.857 0 0 0-2.222-.9 3.023 3.023 0 0 0-2.153.741 2.493 2.493 0 0 0-.787 1.905 2.328 2.328 0 0 0 .742 1.781 6.5 6.5 0 0 0 2.366 1.232 9.859 9.859 0 0 1 2.454 1.118A3.7 3.7 0 0 1 8.3 9.2a4.025 4.025 0 0 1 .4 1.841 3.5 3.5 0 0 1-1.145 2.729 4.333 4.333 0 0 1-3.023 1.03 5.113 5.113 0 0 1-2.311-.52 3.887 3.887 0 0 1-1.632-1.49A4.363 4.363 0 0 1 0 10.489h1.128a3.139 3.139 0 0 0 .92 2.395 3.466 3.466 0 0 0 2.484.871 3.183 3.183 0 0 0 2.192-.732 2.487 2.487 0 0 0 .826-1.959" data-name="Path 27"></path><path d="M26.726.198V10.42a4.488 4.488 0 0 1-1.123 3.236 4.98 4.98 0 0 1-6.343.015 4.528 4.528 0 0 1-1.1-3.29V.198h1.128v10.143q0 3.414 3.157 3.414 3.107 0 3.147-3.315V.198Z" data-name="Path 28"></path><path d="M43.774 11.063a2.579 2.579 0 0 0-.687-1.9 6.828 6.828 0 0 0-2.568-1.326 8.107 8.107 0 0 1-2.761-1.415A3.411 3.411 0 0 1 36.6 3.731a3.478 3.478 0 0 1 1.138-2.692A4.189 4.189 0 0 1 40.677 0a4 4 0 0 1 3.008 1.207 4.284 4.284 0 0 1 1.168 3.107h-1.138a3.352 3.352 0 0 0-.816-2.35 2.857 2.857 0 0 0-2.222-.9 3.023 3.023 0 0 0-2.152.737 2.494 2.494 0 0 0-.786 1.905 2.328 2.328 0 0 0 .742 1.781 6.5 6.5 0 0 0 2.365 1.232A9.862 9.862 0 0 1 43.3 7.842 3.7 3.7 0 0 1 44.526 9.2a4.024 4.024 0 0 1 .4 1.841 3.5 3.5 0 0 1-1.143 2.726 4.333 4.333 0 0 1-3.023 1.034 5.114 5.114 0 0 1-2.311-.52 3.886 3.886 0 0 1-1.632-1.494 4.363 4.363 0 0 1-.589-2.3h1.128a3.14 3.14 0 0 0 .92 2.395 3.466 3.466 0 0 0 2.484.871 3.182 3.182 0 0 0 2.192-.732 2.487 2.487 0 0 0 .826-1.959" data-name="Path 29"></path><path d="M61.13 10.579h-5.4l-1.227 4.028h-1.178L57.916.199h1.049l4.592 14.408h-1.178ZM56.053 9.52h4.75l-2.375-7.728Z" data-name="Path 30"></path><path d="M81.849 14.606h-1.128l-6.8-12.271v12.271h-1.138V.198h1.138l6.809 12.29V.198h1.118Z" data-name="Path 31"></path></g></g><g data-name="Group 21"><g fill="" clip-path="url(#b)" data-name="Group 20" transform="translate(90.79)"><path d="M0 14.8V0h4.575A5.279 5.279 0 0 1 8.1 1.032a3.763 3.763 0 0 1 1.2 3.025A3.647 3.647 0 0 1 8.805 6a2.94 2.94 0 0 1-1.362 1.19 2.589 2.589 0 0 1 1.535 1.142 3.916 3.916 0 0 1 .539 2.12 4.223 4.223 0 0 1-1.185 3.254A4.872 4.872 0 0 1 4.9 14.8Zm2.989-8.608h1.556A1.582 1.582 0 0 0 6.3 4.372a2.089 2.089 0 0 0-.4-1.444 1.735 1.735 0 0 0-1.322-.437H2.989Zm0 2.176v3.955H4.9a1.5 1.5 0 0 0 1.22-.5 2.143 2.143 0 0 0 .417-1.413q0-1.993-1.444-2.044Z" data-name="Path 32"></path><path d="M17.021 0h2.989v14.804h-2.989z" data-name="Rectangle 1203"></path><path d="M30.716 12.323h5.247V14.8h-8.236V0h2.989Z" data-name="Path 33"></path><path d="M42.898 14.8V0h4.575a5.28 5.28 0 0 1 3.524 1.032 3.763 3.763 0 0 1 1.2 3.025 3.646 3.646 0 0 1-.5 1.942 2.942 2.942 0 0 1-1.362 1.19 2.59 2.59 0 0 1 1.535 1.144 3.915 3.915 0 0 1 .539 2.12 4.223 4.223 0 0 1-1.184 3.254 4.873 4.873 0 0 1-3.432 1.1Zm2.989-8.612h1.556a1.582 1.582 0 0 0 1.759-1.82 2.089 2.089 0 0 0-.406-1.444 1.736 1.736 0 0 0-1.322-.437h-1.586Zm0 2.176v3.955h1.912a1.5 1.5 0 0 0 1.22-.5 2.144 2.144 0 0 0 .417-1.413q0-1.993-1.444-2.044Z" data-name="Path 34"></path><path d="M67.433 8.4h-4.657v3.925h5.511V14.8h-8.5V0h8.48v2.491h-5.491v3.5h4.657Z" data-name="Path 35"></path><path d="M79.673 6.65 81.9 0h3.254l-3.965 9.436V14.8h-3.03V9.436L74.183 0h3.254Z" data-name="Path 36"></path></g></g></g></svg>